<svg xmlns="http://www.w3.org/2000/svg" viewBox="0 0 512 512">
  <defs>
    <linearGradient id="bg" x1="0" y1="0" x2="1" y2="1">
      <stop offset="0%" stop-color="#0a0e1a"/>
      <stop offset="100%" stop-color="#111827"/>
    </linearGradient>
    <linearGradient id="cloud" x1="0" y1="0" x2="1" y2="1">
      <stop offset="0%" stop-color="#2dd4bf"/>
      <stop offset="100%" stop-color="#0d9488"/>
    </linearGradient>
    <radialGradient id="glow" cx="0.5" cy="0.4" r="0.6">
      <stop offset="0%" stop-color="#2dd4bf" stop-opacity="0.4"/>
      <stop offset="100%" stop-color="#2dd4bf" stop-opacity="0"/>
    </radialGradient>
  </defs>
  <rect width="512" height="512" rx="96" fill="url(#bg)"/>
  <circle cx="256" cy="220" r="200" fill="url(#glow)"/>
  <g stroke="url(#cloud)" stroke-width="28" stroke-linecap="round" stroke-linejoin="round" fill="none">
    <path d="M120 290 a64 64 0 0 0 64 64 h144 a80 80 0 1 0 -1.6 -160 a80 80 0 1 0 -156.5 33.5 a64 64 0 0 0 -49.9 62.5 z"/>
  </g>
  <g fill="url(#cloud)">
    <circle cx="180" cy="400" r="10"/>
    <circle cx="220" cy="430" r="10"/>
    <circle cx="260" cy="400" r="10"/>
    <circle cx="300" cy="430" r="10"/>
    <circle cx="340" cy="400" r="10"/>
  </g>
</svg>
